<svg width="128" height="128" viewBox="0 0 128 128" fill="none" xmlns="http://www.w3.org/2000/svg">
<rect width="128" height="128" rx="64" fill="#14181F"/>
<path d="M48.924 64.36L46.944 60.4H46.764L47.34 64.36V77.5H42.66V52.12H46.26L55.8 65.548L57.708 69.4H57.888L57.312 65.548V52.3H61.992V77.68H58.392L48.924 64.36ZM80.0002 52.3H84.6802V68.572C84.6802 70.204 84.4642 71.608 84.0322 72.784C83.6002 73.96 83.0002 74.932 82.2322 75.7C81.4642 76.468 80.5282 77.032 79.4242 77.392C78.3202 77.752 77.1082 77.932 75.7882 77.932C69.4042 77.932 66.2122 75.016 66.2122 69.184V52.3H71.1442V68.212C71.1442 69.196 71.2282 70.036 71.3962 70.732C71.5882 71.404 71.8762 71.956 72.2602 72.388C72.6442 72.796 73.1242 73.096 73.7002 73.288C74.2762 73.456 74.9482 73.54 75.7162 73.54C77.2282 73.54 78.3202 73.12 78.9922 72.28C79.6642 71.44 80.0002 70.084 80.0002 68.212V52.3Z" fill="#FEFEFE"/>
</svg>
